<svg xmlns="http://www.w3.org/2000/svg" width="139" height="119" viewBox="0 0 139 119">
    <g fill="none" fill-rule="evenodd">
        <g fill="#FFFFFE">
            <g>
                <g>
                    <g>
                        <path d="M111.986 67.034C71.606 27.507 76.435 25.946 81.083 19 75.026 24.93 72 32.417 72 40.469v52.225c0 8.63 3.501 16.908 9.736 23.011 4.488 4.393 11.831 4.393 16.318 0l15.008-14.69c9.25-9.055 9.25-23.873 0-32.928l-1.076-1.053M42.605 3.301c-4.41-4.401-11.626-4.401-16.036 0L3.308 26.516c-4.41 4.402-4.41 11.605 0 16.006l24.395 24.347c39.63 39.554 34.632 42.108 30.368 48.131C63.955 109.128 67 101.556 67 93.487V41.156c0-8.649-3.443-16.943-9.57-23.058L42.606 3.3" transform="translate(-240 -341) translate(240 341)"/>
                        <path d="M135.76 26.93L112.986 3.354c-4.319-4.47-11.385-4.47-15.704 0L85.917 15.116c-4.473 7.069-9.12 8.657 29.739 48.884l20.105-20.814c4.319-4.47 4.319-11.785 0-16.255M23.796 98.733l17.232 17.01c3.825 3.775 9.756 4.264 14.142 1.492 3.772-5.217 5.126-10.21-31.374-46.235-7.728 7.627-7.728 20.107 0 27.733" transform="translate(-240 -341) translate(240 341)"/>
                    </g>
                </g>
            </g>
        </g>
    </g>
</svg>
